<svg width="37" height="38" fill="none" xmlns="http://www.w3.org/2000/svg"><path d="M15.958 1.354a3.063 3.063 0 0 1 5.084 0c.865 1.261 2.484 1.707 3.848 1.06 1.951-.929 4.208.41 4.402 2.61.135 1.536 1.32 2.754 2.817 2.892 2.142.2 3.445 2.518 2.541 4.522-.63 1.4-.197 3.063 1.031 3.952 1.759 1.271 1.759 3.948 0 5.22-1.228.889-1.661 2.552-1.03 3.952.903 2.005-.4 4.323-2.542 4.522-1.496.138-2.682 1.356-2.817 2.893-.194 2.2-2.45 3.538-4.402 2.61-1.364-.648-2.983-.203-3.848 1.059a3.063 3.063 0 0 1-5.084 0c-.865-1.261-2.484-1.707-3.848-1.06-1.951.929-4.208-.41-4.402-2.61-.135-1.536-1.32-2.754-2.817-2.892-2.141-.2-3.445-2.517-2.541-4.522.63-1.4.197-3.063-1.031-3.952-1.759-1.271-1.759-3.948 0-5.22 1.228-.889 1.662-2.552 1.03-3.952-.903-2.005.4-4.323 2.542-4.522 1.496-.138 2.682-1.356 2.817-2.892.194-2.2 2.45-3.539 4.402-2.61 1.364.647 2.983.201 3.848-1.06z" fill="#000"/></svg>